<?xml version="1.0" encoding="UTF-8"?>
<svg xmlns="http://www.w3.org/2000/svg" xmlns:xlink="http://www.w3.org/1999/xlink" width="71px" height="64px" viewBox="0 0 70 64" version="1.1">
<g id="surface1">
<path style=" stroke:none;fill-rule:nonzero;fill:rgb(0%,0%,0%);fill-opacity:1;" d="M 19.019531 4.640625 C 17.378906 5.191406 16.648438 6.613281 16.414062 9.765625 C 16.300781 11.160156 16.402344 13.097656 16.730469 15.742188 L 16.945312 17.488281 L 16.394531 18.886719 C 15.410156 21.417969 15.023438 23.078125 14.941406 25.308594 C 14.910156 26.050781 14.855469 26.695312 14.828125 26.742188 C 14.789062 26.808594 14.535156 26.789062 14.113281 26.695312 C 12.6875 26.390625 12.484375 26.429688 12.332031 27.066406 C 12.21875 27.519531 12.632812 27.816406 13.859375 28.167969 C 14.441406 28.328125 14.976562 28.441406 15.042969 28.414062 C 15.128906 28.375 15.191406 28.480469 15.230469 28.726562 C 15.269531 28.925781 15.324219 29.179688 15.34375 29.285156 C 15.390625 29.484375 15.371094 29.496094 14.800781 29.445312 C 14.226562 29.398438 14.179688 29.410156 13.992188 29.65625 C 13.515625 30.273438 13.8125 30.605469 15.042969 30.824219 L 15.972656 30.992188 L 16.234375 31.839844 C 16.382812 32.3125 16.507812 32.691406 16.507812 32.691406 C 16.507812 32.691406 16.328125 32.683594 16.101562 32.664062 C 15.652344 32.625 15.503906 32.738281 15.425781 33.175781 C 15.34375 33.632812 15.484375 33.738281 16.214844 33.738281 C 16.582031 33.746094 16.917969 33.792969 17.003906 33.859375 C 17.078125 33.925781 17.304688 34.238281 17.5 34.570312 C 17.921875 35.265625 19.09375 36.878906 19.609375 37.476562 C 19.835938 37.722656 19.957031 37.960938 19.929688 38.046875 C 19.855469 38.300781 19.695312 39.640625 19.601562 40.921875 L 19.507812 42.125 L 18.992188 42.621094 C 17.085938 44.441406 16.113281 46.578125 15.792969 49.613281 C 15.519531 52.214844 15.867188 54.074219 16.976562 56.039062 C 17.808594 57.507812 18.886719 58.554688 20.230469 59.179688 C 21.953125 59.996094 24.019531 60.035156 26.109375 59.285156 C 26.484375 59.152344 26.484375 59.160156 27.046875 59.585938 C 27.777344 60.148438 29.410156 60.964844 30.199219 61.164062 C 31.050781 61.378906 32.160156 61.445312 32.5625 61.3125 C 33.171875 61.113281 33.753906 60.300781 33.761719 59.664062 L 33.761719 59.40625 L 34.773438 59.40625 C 35.328125 59.40625 35.929688 59.378906 36.117188 59.351562 L 36.464844 59.292969 L 36.613281 59.824219 C 36.699219 60.117188 36.894531 60.5 37.042969 60.667969 C 37.757812 61.496094 39.585938 61.503906 41.648438 60.679688 C 42.183594 60.46875 43.9375 59.464844 44.03125 59.3125 C 44.050781 59.285156 44.453125 59.351562 44.933594 59.472656 C 47.011719 60.003906 48.5625 59.984375 50.0625 59.40625 C 51.722656 58.761719 52.996094 57.652344 53.8125 56.152344 C 55.679688 52.707031 55.417969 48.324219 53.117188 44.792969 C 52.640625 44.042969 51.160156 42.46875 50.820312 42.335938 C 50.597656 42.25 50.578125 42.203125 50.558594 41.546875 C 50.539062 40.484375 50.464844 39.90625 50.210938 38.765625 L 49.976562 37.714844 L 50.457031 37.199219 C 50.726562 36.914062 51.035156 36.527344 51.167969 36.347656 C 52.078125 35.019531 52.632812 34.183594 52.726562 33.972656 C 52.820312 33.746094 52.855469 33.738281 53.503906 33.765625 C 54.273438 33.8125 54.488281 33.679688 54.488281 33.214844 C 54.488281 32.84375 54.132812 32.597656 53.730469 32.683594 C 53.476562 32.730469 53.445312 32.710938 53.503906 32.570312 C 53.53125 32.484375 53.671875 32.058594 53.8125 31.628906 L 54.066406 30.84375 L 54.589844 30.84375 C 55.351562 30.84375 55.699219 30.691406 55.867188 30.300781 C 55.980469 30.007812 55.980469 29.941406 55.859375 29.742188 C 55.640625 29.410156 55.386719 29.3125 54.957031 29.378906 L 54.5625 29.445312 L 54.628906 28.980469 C 54.703125 28.382812 54.75 28.261719 54.84375 28.316406 C 54.976562 28.394531 56.214844 28.082031 56.382812 27.917969 C 56.609375 27.71875 56.609375 27.035156 56.390625 26.835938 C 56.101562 26.582031 55.820312 26.542969 55.519531 26.722656 C 55.371094 26.820312 55.210938 26.867188 55.171875 26.828125 C 55.136719 26.789062 55.078125 26.164062 55.042969 25.433594 C 54.902344 22.832031 54.207031 20.175781 53.070312 17.90625 C 52.894531 17.554688 52.894531 17.546875 53.117188 15.941406 C 53.464844 13.589844 53.578125 11.929688 53.523438 10.152344 C 53.484375 8.835938 53.4375 8.457031 53.230469 7.734375 C 52.742188 6.074219 52.238281 5.324219 51.253906 4.832031 C 50.660156 4.535156 50.613281 4.535156 49.6875 4.574219 C 48.1875 4.648438 46.984375 5.171875 44.5 6.8125 C 43.835938 7.261719 42.878906 7.933594 42.390625 8.292969 C 41.902344 8.664062 41.386719 9.042969 41.246094 9.140625 C 41.097656 9.222656 40.984375 9.367188 40.984375 9.441406 C 40.984375 9.621094 41.019531 9.621094 39.25 9.347656 C 36.59375 8.921875 33.125 8.929688 30.265625 9.347656 C 29.222656 9.507812 29.363281 9.554688 28.136719 8.625 C 26.785156 7.609375 24.234375 5.960938 23.304688 5.503906 C 22.789062 5.246094 22.046875 4.953125 21.664062 4.839844 C 20.894531 4.621094 19.421875 4.507812 19.019531 4.640625 Z M 49.742188 7.496094 C 50.257812 7.742188 50.585938 8.324219 50.792969 9.355469 C 50.925781 9.972656 50.941406 10.488281 50.894531 12.289062 C 50.839844 14.445312 50.726562 15.621094 50.351562 17.71875 C 50.035156 19.519531 50.136719 19.898438 51.054688 20.308594 C 51.449219 20.488281 51.460938 20.507812 51.804688 21.511719 C 52.304688 23.003906 52.519531 24.207031 52.585938 25.917969 L 52.640625 27.386719 L 51.316406 27.566406 C 50.269531 27.699219 49.941406 27.71875 49.753906 27.632812 C 49.394531 27.464844 49.078125 27.492188 48.859375 27.710938 C 48.609375 27.964844 48.625 28.300781 48.917969 28.648438 C 49.300781 29.113281 49.6875 29.179688 50.988281 29 C 51.601562 28.914062 52.144531 28.847656 52.199219 28.847656 C 52.246094 28.847656 52.265625 29.058594 52.257812 29.3125 L 52.21875 29.769531 L 51.496094 29.789062 C 50.519531 29.816406 50.238281 29.902344 50.136719 30.195312 C 49.941406 30.765625 50.417969 31.277344 51.074219 31.203125 C 51.253906 31.183594 51.394531 31.175781 51.394531 31.175781 C 51.394531 31.316406 50.632812 32.683594 50.042969 33.585938 C 48.765625 35.566406 47.136719 37.144531 45.082031 38.394531 C 43.804688 39.175781 43.09375 39.496094 41.6875 39.972656 C 39.15625 40.816406 37.382812 41.128906 35.167969 41.128906 C 30.011719 41.140625 25.480469 39.460938 21.71875 36.15625 C 21.015625 35.539062 19.683594 33.566406 18.90625 31.992188 L 18.476562 31.125 L 18.972656 31.125 C 19.246094 31.125 19.554688 31.070312 19.648438 30.992188 C 19.855469 30.84375 19.882812 30.320312 19.683594 30.128906 C 19.535156 29.980469 18.730469 29.796875 18.195312 29.796875 C 17.875 29.796875 17.835938 29.769531 17.78125 29.503906 C 17.648438 28.832031 17.621094 28.847656 18.644531 28.914062 C 19.902344 28.992188 20.191406 28.925781 20.445312 28.515625 C 20.839844 27.871094 20.480469 27.300781 19.824219 27.519531 C 19.507812 27.632812 19.207031 27.605469 17.621094 27.367188 L 17.285156 27.320312 L 17.3125 26.164062 C 17.339844 24.371094 17.640625 22.414062 18.070312 21.230469 C 18.203125 20.878906 18.34375 20.59375 18.390625 20.59375 C 18.429688 20.59375 18.71875 20.433594 19.027344 20.234375 C 19.574219 19.890625 19.589844 19.871094 19.601562 19.472656 C 19.601562 19.246094 19.488281 18.203125 19.355469 17.15625 C 18.765625 12.441406 18.804688 9.1875 19.480469 8.21875 C 19.890625 7.628906 20.199219 7.449219 20.761719 7.449219 C 21.8125 7.46875 23.960938 8.824219 26.429688 11.046875 C 28.265625 12.707031 28.425781 12.832031 28.652344 12.679688 C 29.074219 12.402344 30.796875 11.996094 32.308594 11.816406 C 32.851562 11.75 32.871094 11.75 32.710938 11.929688 C 31.960938 12.765625 31.886719 15.363281 32.5625 16.75 C 32.816406 17.273438 33.265625 17.71875 33.640625 17.851562 C 34.289062 18.058594 35.054688 17.5 35.28125 16.644531 C 35.347656 16.417969 35.421875 16.226562 35.449219 16.226562 C 35.488281 16.226562 35.5625 16.398438 35.628906 16.605469 C 35.683594 16.816406 35.898438 17.15625 36.097656 17.367188 C 36.425781 17.71875 36.492188 17.746094 36.949219 17.746094 C 37.417969 17.746094 37.476562 17.71875 37.851562 17.320312 C 38.359375 16.789062 38.640625 15.953125 38.703125 14.738281 C 38.761719 13.78125 38.628906 12.898438 38.359375 12.308594 C 38.226562 12.050781 38.214844 11.957031 38.3125 11.957031 C 38.6875 11.957031 41.144531 12.554688 41.273438 12.679688 C 41.367188 12.765625 41.480469 12.8125 41.527344 12.800781 C 41.574219 12.78125 42.070312 12.328125 42.632812 11.796875 C 43.664062 10.828125 45.363281 9.488281 46.601562 8.683594 C 47.21875 8.285156 49.085938 7.308594 49.265625 7.308594 C 49.300781 7.308594 49.519531 7.394531 49.742188 7.496094 Z M 35.488281 11.730469 C 36.125 11.785156 36.191406 11.816406 36.085938 11.949219 C 35.890625 12.183594 35.636719 12.734375 35.507812 13.191406 L 35.375 13.617188 L 35.308594 13.332031 C 35.167969 12.78125 34.671875 11.84375 34.476562 11.765625 C 34.296875 11.691406 34.296875 11.683594 34.523438 11.683594 C 34.652344 11.671875 35.09375 11.699219 35.488281 11.730469 Z M 48 40.058594 C 48.34375 41.480469 48.390625 45.105469 48.101562 47.050781 C 47.464844 51.359375 46.066406 54.261719 43.589844 56.464844 C 42.390625 57.539062 40.796875 58.4375 39.8125 58.601562 L 39.425781 58.65625 L 39.3125 57.488281 C 39.25 56.84375 39.117188 55.808594 39.015625 55.183594 C 38.910156 54.558594 38.796875 53.703125 38.769531 53.285156 C 38.695312 52.375 38.628906 52.222656 38.214844 52.042969 C 37.542969 51.757812 36.632812 51.9375 36.371094 52.414062 C 36.238281 52.640625 36.238281 54.394531 36.378906 55.800781 C 36.417969 56.246094 36.445312 56.617188 36.425781 56.636719 C 36.386719 56.691406 34.210938 56.664062 34.164062 56.617188 C 34.136719 56.589844 34.164062 55.761719 34.230469 54.785156 C 34.324219 53.3125 34.316406 52.933594 34.210938 52.632812 C 34.023438 52.082031 33.707031 51.882812 32.964844 51.871094 C 32.429688 51.863281 32.328125 51.890625 32.121094 52.109375 C 31.90625 52.328125 31.867188 52.46875 31.785156 53.34375 C 31.578125 55.648438 31.238281 58.667969 31.183594 58.722656 C 31.097656 58.820312 29.953125 58.390625 29.035156 57.925781 C 27.414062 57.109375 26.304688 56.085938 25.113281 54.320312 C 23.15625 51.398438 22.039062 47.410156 22.039062 43.351562 C 22.039062 42.125 22.152344 40.425781 22.28125 39.792969 L 22.320312 39.582031 L 22.554688 39.800781 C 22.882812 40.113281 24.636719 41.140625 25.59375 41.585938 C 27.488281 42.476562 29.308594 42.980469 32.167969 43.425781 C 33.78125 43.671875 36.605469 43.644531 38.261719 43.378906 C 39.792969 43.121094 40.703125 42.902344 42.0625 42.449219 C 43.347656 42.019531 44.527344 41.539062 45.203125 41.15625 C 46.46875 40.445312 47.734375 39.640625 47.734375 39.542969 C 47.734375 39.316406 47.90625 39.640625 48 40.058594 Z M 51.769531 47.574219 C 52.40625 48.949219 52.566406 49.679688 52.566406 51.199219 C 52.554688 53.265625 52.085938 54.710938 51.054688 55.800781 C 49.996094 56.929688 49.039062 57.339844 47.511719 57.328125 C 46.996094 57.320312 46.5625 57.308594 46.554688 57.289062 C 46.542969 57.28125 46.722656 57.054688 46.964844 56.796875 C 48.730469 54.851562 50.128906 51.417969 50.503906 48.113281 C 50.578125 47.460938 50.644531 46.652344 50.644531 46.320312 L 50.644531 45.714844 L 51.027344 46.253906 C 51.234375 46.546875 51.570312 47.144531 51.769531 47.574219 Z M 19.863281 46.234375 C 19.929688 47.421875 20.378906 49.898438 20.78125 51.246094 C 21.34375 53.113281 22.039062 54.527344 23.183594 56.132812 L 24.054688 57.367188 L 23.25 57.347656 C 22.1875 57.328125 21.410156 57.101562 20.59375 56.558594 C 19.582031 55.886719 18.757812 54.765625 18.445312 53.617188 C 18.183594 52.6875 17.988281 51.046875 18.042969 50.4375 C 18.128906 49.660156 18.511719 48.257812 18.859375 47.476562 C 19.167969 46.777344 19.703125 45.835938 19.789062 45.835938 C 19.816406 45.835938 19.855469 46.015625 19.863281 46.234375 Z M 19.863281 46.234375 "/>
<path style=" stroke:none;fill-rule:nonzero;fill:rgb(0%,0%,0%);fill-opacity:1;" d="M 27.667969 26.4375 C 27.214844 26.636719 26.945312 26.914062 26.652344 27.472656 C 26.417969 27.910156 26.398438 28.035156 26.410156 29.039062 C 26.410156 30.234375 26.484375 30.453125 27.066406 31.183594 C 27.554688 31.78125 28.238281 32.113281 28.988281 32.125 C 29.503906 32.125 29.664062 32.085938 29.992188 31.859375 C 30.480469 31.535156 30.910156 30.945312 31.050781 30.425781 C 31.21875 29.78125 31.117188 28.59375 30.835938 28.042969 C 30.152344 26.703125 28.714844 25.972656 27.667969 26.4375 Z M 27.902344 29.039062 C 28.058594 29.34375 28.042969 29.429688 27.730469 29.769531 C 27.46875 30.0625 27.273438 30.046875 27.066406 29.703125 C 26.90625 29.417969 26.90625 29.410156 27.101562 29.085938 C 27.367188 28.648438 27.695312 28.640625 27.902344 29.039062 Z M 27.902344 29.039062 "/>
<path style=" stroke:none;fill-rule:nonzero;fill:rgb(0%,0%,0%);fill-opacity:1;" d="M 41.480469 26.488281 C 40.851562 26.734375 40.15625 27.484375 39.867188 28.242188 C 39.566406 29.019531 39.484375 30.386719 39.71875 30.851562 C 40.007812 31.429688 40.34375 31.808594 40.738281 31.992188 C 42.136719 32.636719 43.742188 31.449219 44.210938 29.4375 C 44.574219 27.832031 43.636719 26.277344 42.316406 26.296875 C 42.128906 26.296875 41.753906 26.382812 41.480469 26.488281 Z M 40.863281 29.097656 C 41.003906 29.324219 41.003906 29.371094 40.878906 29.589844 C 40.804688 29.730469 40.628906 29.902344 40.488281 29.988281 C 40.234375 30.121094 40.214844 30.121094 40.046875 29.914062 C 39.90625 29.730469 39.886719 29.648438 39.960938 29.4375 C 40.1875 28.832031 40.589844 28.679688 40.863281 29.097656 Z M 40.863281 29.097656 "/>
<path style=" stroke:none;fill-rule:nonzero;fill:rgb(0%,0%,0%);fill-opacity:1;" d="M 33.546875 30.632812 C 33.359375 30.84375 33.339844 31.296875 33.519531 31.535156 C 33.582031 31.621094 33.769531 31.742188 33.929688 31.800781 C 34.195312 31.886719 34.511719 32.351562 34.511719 32.625 C 34.511719 32.96875 33.441406 33.175781 33.199219 32.882812 C 32.851562 32.464844 32.101562 32.96875 32.207031 33.546875 C 32.28125 33.917969 32.730469 34.324219 33.160156 34.410156 C 33.613281 34.496094 34.539062 34.316406 34.851562 34.085938 C 35.085938 33.917969 35.101562 33.917969 35.554688 34.136719 C 36.453125 34.570312 37.476562 34.503906 38 33.972656 C 38.328125 33.640625 38.359375 33.121094 38.074219 32.835938 C 37.839844 32.597656 37.730469 32.597656 37.371094 32.835938 C 37.101562 33.015625 36.558594 33.082031 36.257812 32.96875 C 36.144531 32.929688 36.105469 32.777344 36.105469 32.445312 C 36.105469 32.039062 36.136719 31.980469 36.292969 31.980469 C 36.605469 31.980469 36.949219 31.5625 36.949219 31.191406 C 36.949219 30.84375 36.640625 30.460938 36.351562 30.460938 C 36.257812 30.460938 35.992188 30.585938 35.757812 30.746094 C 35.535156 30.898438 35.289062 31.03125 35.214844 31.03125 C 35.140625 31.03125 34.878906 30.898438 34.632812 30.746094 C 34.128906 30.425781 33.761719 30.386719 33.546875 30.632812 Z M 33.546875 30.632812 "/>
</g>
</svg>
