<svg xmlns="http://www.w3.org/2000/svg" version="1.1" xmlns:xlink="http://www.w3.org/1999/xlink" xmlns:svgjs="http://svgjs.com/svgjs" width="64px" height="58px"><svg xmlns="http://www.w3.org/2000/svg" xmlns:xlink="http://www.w3.org/1999/xlink" width="64px" height="58px" viewBox="0 0 64 58" version="1.1">
<g id="SvgjsG1000">
<path style="stroke: none; fill-rule: nonzero; fill: rgb(0, 0, 0); fill-opacity: 1; --darkreader-inline-stroke: none; --darkreader-inline-fill: #e8e6e3;" d="M 17.390625 4.207031 C 15.886719 4.703125 15.21875 5.996094 15.003906 8.851562 C 14.902344 10.113281 14.996094 11.867188 15.296875 14.269531 L 15.492188 15.851562 L 14.988281 17.113281 C 14.105469 19.351562 13.746094 20.882812 13.660156 22.816406 C 13.617188 23.761719 13.589844 23.910156 13.46875 23.867188 C 12.757812 23.652344 8.34375 22.714844 8.179688 22.757812 C 7.417969 22.945312 7.3125 24.027344 8.035156 24.328125 C 8.164062 24.382812 9.011719 24.597656 9.902344 24.804688 C 10.804688 25.007812 12.003906 25.320312 12.578125 25.492188 C 13.160156 25.65625 13.683594 25.773438 13.746094 25.75 C 13.832031 25.714844 13.890625 25.828125 13.949219 26.128906 L 14.035156 26.550781 L 10.828125 26.609375 C 9.0625 26.644531 7.511719 26.710938 7.375 26.753906 C 6.679688 27.003906 6.695312 28.046875 7.390625 28.285156 C 7.570312 28.355469 8.738281 28.363281 11.121094 28.320312 C 14.0625 28.277344 14.601562 28.285156 14.671875 28.390625 C 14.757812 28.535156 15.03125 29.421875 14.988281 29.457031 C 14.972656 29.464844 13.789062 29.6875 12.355469 29.953125 C 9.996094 30.382812 9.730469 30.453125 9.527344 30.652344 C 9.089844 31.089844 9.328125 31.898438 9.945312 32.035156 C 10.117188 32.070312 14.59375 31.320312 15.648438 31.082031 C 15.777344 31.046875 15.878906 31.132812 16.078125 31.449219 C 16.410156 31.992188 17.507812 33.480469 17.929688 33.960938 C 18.136719 34.1875 18.246094 34.402344 18.222656 34.476562 C 18.152344 34.710938 18.007812 35.921875 17.921875 37.085938 L 17.835938 38.175781 L 17.363281 38.625 C 15.621094 40.273438 14.730469 42.210938 14.4375 44.960938 C 14.191406 47.320312 14.507812 49.003906 15.519531 50.785156 C 16.28125 52.117188 17.269531 53.0625 18.496094 53.632812 C 20.074219 54.371094 21.960938 54.40625 23.871094 53.726562 C 24.214844 53.605469 24.214844 53.613281 24.730469 54 C 25.398438 54.507812 26.890625 55.246094 27.609375 55.429688 C 28.390625 55.625 29.402344 55.6875 29.769531 55.566406 C 30.328125 55.386719 30.859375 54.644531 30.867188 54.070312 L 30.867188 53.835938 L 31.792969 53.835938 C 32.300781 53.835938 32.847656 53.8125 33.019531 53.785156 L 33.335938 53.734375 L 33.476562 54.214844 C 33.550781 54.484375 33.730469 54.828125 33.871094 54.980469 C 34.519531 55.730469 36.191406 55.738281 38.078125 54.988281 C 38.566406 54.800781 40.171875 53.890625 40.257812 53.75 C 40.273438 53.726562 40.644531 53.785156 41.082031 53.898438 C 42.984375 54.378906 44.398438 54.363281 45.769531 53.835938 C 47.289062 53.253906 48.453125 52.246094 49.199219 50.886719 C 50.90625 47.765625 50.667969 43.792969 48.566406 40.59375 C 48.128906 39.914062 46.773438 38.484375 46.464844 38.367188 C 46.257812 38.289062 46.242188 38.246094 46.226562 37.652344 C 46.207031 36.6875 46.140625 36.164062 45.90625 35.132812 L 45.695312 34.175781 L 46.164062 33.660156 C 46.664062 33.121094 46.773438 32.972656 47.546875 31.839844 C 48.035156 31.125 48.035156 31.125 48.34375 31.175781 C 49.421875 31.347656 54.558594 31.992188 54.886719 31.992188 C 55.425781 31.992188 55.734375 31.699219 55.734375 31.175781 C 55.734375 30.753906 55.503906 30.480469 55.039062 30.359375 C 54.875 30.324219 53.445312 30.117188 51.851562 29.910156 L 48.953125 29.542969 L 48.996094 29.328125 C 49.011719 29.207031 49.097656 28.972656 49.167969 28.800781 L 49.292969 28.492188 L 50.820312 28.433594 C 51.660156 28.398438 53.445312 28.335938 54.789062 28.292969 C 56.136719 28.25 57.355469 28.175781 57.5 28.121094 C 57.972656 27.960938 58.1875 27.332031 57.914062 26.925781 C 57.628906 26.523438 57.421875 26.496094 54.875 26.582031 C 52.714844 26.644531 51.394531 26.667969 50.296875 26.660156 L 49.886719 26.660156 L 49.9375 26.386719 C 49.964844 26.238281 49.996094 26.109375 50.015625 26.101562 C 50.023438 26.09375 50.710938 25.902344 51.53125 25.679688 C 52.355469 25.457031 53.28125 25.199219 53.589844 25.113281 C 53.898438 25.019531 54.652344 24.8125 55.261719 24.640625 C 56.652344 24.253906 56.824219 24.183594 56.976562 23.960938 C 57.183594 23.675781 57.140625 23.109375 56.910156 22.894531 C 56.53125 22.542969 56.359375 22.558594 53.386719 23.394531 C 51.839844 23.824219 50.519531 24.15625 50.460938 24.140625 C 50.390625 24.105469 50.339844 23.746094 50.304688 22.945312 C 50.210938 20.726562 49.550781 18.265625 48.523438 16.230469 C 48.359375 15.910156 48.359375 15.902344 48.566406 14.449219 C 48.882812 12.316406 48.984375 10.808594 48.933594 9.203125 C 48.898438 8.007812 48.859375 7.664062 48.667969 7.007812 C 48.222656 5.503906 47.761719 4.824219 46.859375 4.378906 C 46.320312 4.109375 46.277344 4.109375 45.425781 4.144531 C 44.054688 4.214844 42.957031 4.6875 40.6875 6.175781 C 40.078125 6.578125 39.203125 7.191406 38.757812 7.515625 C 38.3125 7.851562 37.839844 8.195312 37.710938 8.28125 C 37.574219 8.359375 37.46875 8.488281 37.46875 8.558594 C 37.46875 8.71875 37.503906 8.71875 35.882812 8.472656 C 33.457031 8.085938 30.285156 8.09375 27.667969 8.472656 C 26.71875 8.617188 26.847656 8.660156 25.722656 7.816406 C 24.488281 6.898438 22.15625 5.402344 21.308594 4.988281 C 20.835938 4.757812 20.160156 4.488281 19.808594 4.386719 C 19.105469 4.1875 17.757812 4.085938 17.390625 4.207031 Z M 40 21.808594 C 40.652344 21.972656 41.175781 22.285156 41.636719 22.765625 C 43.480469 24.664062 43.007812 27.898438 40.738281 28.972656 C 40.324219 29.164062 40.144531 29.199219 39.441406 29.199219 C 38.707031 29.199219 38.578125 29.171875 38.046875 28.921875 C 36.949219 28.398438 36.226562 27.417969 35.945312 26.074219 C 35.824219 25.472656 35.816406 25.292969 35.910156 24.75 C 36.054688 23.925781 36.339844 23.324219 36.835938 22.78125 C 37.738281 21.828125 38.808594 21.492188 40 21.808594 Z M 26.222656 21.878906 C 26.839844 22.042969 27.328125 22.351562 27.816406 22.867188 C 28.3125 23.410156 28.597656 24.011719 28.742188 24.835938 C 28.835938 25.378906 28.828125 25.558594 28.707031 26.160156 C 28.425781 27.503906 27.703125 28.484375 26.605469 29.007812 C 26.074219 29.257812 25.945312 29.285156 25.210938 29.285156 C 24.507812 29.285156 24.324219 29.25 23.914062 29.058594 C 21.640625 27.984375 21.171875 24.75 23.015625 22.851562 C 23.886719 21.949219 25.097656 21.578125 26.222656 21.878906 Z M 26.222656 21.878906 " data-darkreader-inline-stroke="" data-darkreader-inline-fill=""></path>
</g>
</svg><style>@media (prefers-color-scheme: light) { :root { filter: none; } }
@media (prefers-color-scheme: dark) { :root { filter: invert(100%); } }
</style></svg>