<?xml version="1.0" standalone="no"?>
<!DOCTYPE svg PUBLIC "-//W3C//DTD SVG 20010904//EN"
 "http://www.w3.org/TR/2001/REC-SVG-20010904/DTD/svg10.dtd">
<svg version="1.0" xmlns="http://www.w3.org/2000/svg"
 width="1024.000000pt" height="1024.000000pt" viewBox="0 0 1024.000000 1024.000000"
 preserveAspectRatio="xMidYMid meet">
<metadata>
Created by potrace 1.14, written by Peter Selinger 2001-2017
</metadata>
<g transform="translate(0.000000,1024.000000) scale(0.100000,-0.100000)"
fill="#000000" stroke="none">
<path d="M2797 9088 c-70 -15 -129 -49 -193 -112 -35 -35 -64 -69 -64 -75 0
-7 -9 -21 -20 -33 -10 -12 -17 -25 -14 -29 2 -4 0 -10 -5 -13 -9 -6 -42 -107
-57 -176 -4 -19 -9 -39 -10 -45 -34 -149 -47 -446 -30 -690 4 -60 9 -123 11
-138 2 -15 6 -60 10 -100 4 -40 9 -85 11 -102 10 -81 31 -251 38 -323 2 -23
-3 -52 -14 -75 -10 -20 -16 -37 -13 -37 3 0 1 -6 -4 -12 -6 -7 -29 -65 -53
-128 -24 -63 -47 -121 -53 -127 -5 -7 -7 -13 -4 -13 3 0 -8 -39 -24 -87 -33
-95 -83 -298 -95 -378 -18 -132 -22 -169 -29 -290 -7 -114 -11 -155 -18 -162
-3 -2 -31 2 -64 11 -67 18 -226 54 -263 60 -14 3 -25 5 -25 6 0 1 -7 3 -15 5
-8 1 -42 8 -75 16 -33 7 -69 14 -80 15 -11 2 -42 8 -70 14 -27 6 -61 13 -75
16 -14 2 -45 9 -70 14 -92 20 -137 20 -165 -2 -73 -58 -74 -173 -1 -217 25
-15 286 -85 426 -115 14 -3 43 -10 65 -16 22 -6 51 -13 65 -16 14 -3 57 -14
95 -25 39 -11 95 -27 125 -35 30 -9 66 -19 80 -23 14 -5 33 -7 43 -5 9 1 17
-2 17 -7 0 -4 6 -6 13 -3 21 8 37 -19 40 -65 1 -22 7 -41 12 -41 6 0 3 -5 -5
-10 -9 -5 -153 -11 -320 -14 -354 -7 -590 -14 -675 -22 -33 -3 -66 -6 -72 -6
-7 -1 -13 -5 -13 -10 0 -4 -6 -8 -14 -8 -20 0 -46 -61 -46 -107 0 -45 47 -123
64 -106 3 4 6 2 6 -4 0 -17 83 -18 836 -13 193 1 319 -2 330 -8 24 -14 68
-160 53 -178 -6 -8 -15 -11 -20 -8 -5 3 -33 0 -62 -5 -28 -6 -63 -13 -77 -16
-67 -13 -147 -28 -165 -31 -11 -1 -30 -5 -41 -8 -12 -2 -37 -7 -55 -10 -19 -3
-59 -10 -89 -16 -30 -6 -66 -13 -80 -16 -208 -39 -279 -62 -287 -95 -3 -11 -9
-19 -13 -19 -11 0 -9 -92 3 -115 13 -25 46 -55 72 -65 19 -7 63 -3 205 20 36
6 81 13 100 15 19 3 46 7 60 10 14 3 41 8 60 11 19 3 46 7 60 9 40 7 70 12
165 30 50 9 104 19 120 21 17 2 47 7 68 13 20 5 37 7 37 4 0 -3 6 -1 13 5 26
21 66 7 95 -33 16 -22 62 -87 103 -145 41 -58 79 -112 86 -120 114 -142 163
-208 164 -220 2 -19 -1 -48 -7 -80 -8 -42 -18 -143 -18 -192 -1 -27 -3 -48 -6
-48 -4 0 -6 -10 -7 -22 0 -31 -14 -203 -18 -239 -3 -20 -27 -52 -83 -106 -88
-88 -191 -208 -213 -250 -7 -15 -17 -30 -20 -33 -13 -11 -73 -130 -107 -210
-31 -75 -63 -178 -77 -247 -3 -13 -7 -34 -10 -48 -3 -14 -8 -37 -11 -52 -3
-16 -6 -36 -7 -45 -1 -10 -4 -18 -7 -18 -3 0 -6 -19 -6 -43 -1 -23 -5 -78 -9
-122 -12 -133 -7 -318 10 -406 3 -13 8 -40 11 -59 18 -100 130 -388 156 -398
4 -2 8 -8 8 -13 0 -26 111 -174 197 -263 103 -105 315 -222 458 -252 80 -16
137 -24 145 -19 6 3 10 3 10 -2 0 -22 271 1 394 33 33 9 80 23 105 31 68 23
81 20 157 -36 39 -28 76 -51 81 -51 6 0 13 -4 15 -9 3 -10 242 -131 258 -131
6 0 24 -7 39 -15 16 -8 41 -17 57 -20 41 -8 59 -13 59 -15 0 -5 69 -11 168
-15 128 -6 162 5 220 67 49 53 77 108 84 167 l5 47 132 0 c72 1 159 4 193 8
67 7 76 1 86 -55 5 -31 26 -74 57 -121 64 -95 228 -126 455 -85 11 2 40 10 65
17 25 7 50 14 55 14 48 4 204 79 369 179 l99 59 51 -11 c28 -6 62 -14 76 -17
40 -8 55 -12 55 -14 0 -1 11 -3 25 -6 14 -2 36 -6 50 -8 59 -12 141 -19 217
-20 46 0 83 -5 83 -9 0 -5 6 -5 12 -1 7 5 29 10 48 12 54 5 95 10 95 12 0 2 9
4 55 13 82 17 293 115 338 157 12 11 24 20 27 20 7 0 17 8 86 73 90 84 176
196 210 275 7 17 17 32 21 32 5 0 7 3 6 8 -1 4 6 25 16 47 35 79 39 90 37 99
-1 4 2 13 8 20 11 13 58 202 67 266 3 25 7 59 10 75 6 46 6 222 0 300 -5 72
-10 102 -32 203 -6 29 -7 30 -18 77 -12 46 -46 146 -62 182 -8 17 -14 34 -14
38 0 12 -88 184 -109 214 -12 16 -21 32 -21 36 0 31 -279 338 -345 380 -16 11
-34 26 -39 33 -4 8 -10 62 -12 121 -4 141 -14 215 -44 346 -11 45 -21 93 -24
108 -2 15 -8 36 -11 47 -6 19 0 27 90 126 56 61 175 219 175 232 0 4 8 17 18
28 10 10 32 40 50 67 31 44 45 53 82 49 8 -1 33 -4 55 -6 43 -5 105 -14 145
-21 28 -6 94 -14 155 -21 22 -2 54 -6 70 -9 17 -2 50 -7 75 -10 25 -2 63 -7
85 -10 22 -3 63 -8 90 -11 64 -7 104 -12 152 -18 237 -33 302 -28 338 28 20
30 26 91 13 125 -12 33 -49 71 -70 71 -9 0 -19 4 -22 8 -3 5 -26 9 -52 11 -26
1 -50 4 -54 6 -3 2 -26 6 -50 9 -25 4 -56 9 -70 11 -58 10 -146 21 -230 30
-25 2 -45 5 -45 5 0 3 -40 8 -95 14 -54 6 -139 17 -160 21 -14 2 -66 9 -169
21 -59 7 -62 10 -50 42 6 15 9 27 8 27 -2 0 6 24 16 53 16 43 23 52 44 53 48
2 145 6 341 13 107 4 240 9 295 11 55 2 172 7 260 10 406 14 427 19 462 93 17
33 18 47 14 97 0 8 -14 28 -30 44 -46 47 -63 48 -546 36 -498 -12 -720 -12
-718 2 2 6 4 25 5 42 2 29 7 32 70 52 38 11 74 22 81 23 7 1 21 5 32 9 11 3
31 9 45 11 31 7 249 66 270 74 30 11 69 22 96 27 10 2 19 4 19 5 0 1 7 3 15 5
16 3 59 15 215 62 50 15 97 28 105 28 8 1 24 5 35 9 106 40 126 51 141 74 19
29 26 110 11 130 -5 6 -6 12 -1 12 11 0 -27 35 -55 50 -23 12 -152 7 -175 -7
-5 -3 -19 -7 -30 -9 -21 -3 -241 -62 -241 -64 0 -1 -8 -3 -18 -5 -10 -2 -26
-7 -35 -11 -9 -3 -26 -8 -37 -9 -11 -2 -63 -16 -115 -31 -52 -15 -102 -28
-110 -29 -8 -1 -22 -5 -30 -8 -43 -16 -200 -48 -209 -43 -5 4 -10 14 -10 24 0
9 -2 49 -6 87 -3 39 -8 95 -10 125 -3 30 -7 82 -10 115 -2 33 -10 84 -16 114
-6 30 -12 64 -14 75 -1 12 -7 40 -13 64 -5 23 -8 42 -6 42 3 0 0 8 -5 18 -5 9
-11 31 -14 47 -8 45 -43 159 -56 184 -7 11 -10 21 -7 21 2 0 -11 39 -29 88
-30 82 -56 141 -110 254 -23 48 -24 66 -9 168 3 25 8 61 10 80 3 32 6 52 20
145 2 17 6 50 8 75 2 25 7 65 11 90 14 85 16 136 20 415 4 346 -2 397 -68 590
-32 93 -78 181 -123 234 -26 32 -108 91 -125 91 -5 0 -9 5 -9 12 0 6 -3 9 -6
6 -3 -4 -25 2 -48 13 -36 16 -61 18 -152 14 -60 -2 -122 -7 -139 -10 -44 -8
-135 -34 -170 -48 -62 -25 -232 -111 -272 -139 -23 -15 -44 -28 -48 -28 -5 0
-80 -47 -100 -63 -5 -5 -49 -34 -97 -65 -48 -31 -95 -63 -105 -70 -10 -7 -60
-43 -111 -80 -51 -37 -103 -72 -114 -79 -11 -6 -23 -16 -27 -21 -3 -5 -28 -24
-55 -41 -28 -17 -46 -31 -40 -31 5 0 1 -5 -9 -11 -9 -6 -15 -14 -12 -19 10
-16 -28 -20 -91 -10 -73 12 -76 12 -234 34 -63 9 -149 19 -190 22 -95 9 -702
13 -715 6 -5 -4 -30 -7 -55 -8 -65 -3 -166 -13 -280 -29 -103 -15 -132 -14
-169 4 -30 16 -115 74 -156 108 -5 5 -26 20 -45 33 -19 13 -39 28 -45 33 -5 4
-39 27 -75 50 -36 22 -67 44 -70 47 -5 5 -78 54 -112 75 -9 5 -40 25 -70 43
-29 18 -62 38 -73 45 -11 7 -22 14 -25 17 -14 14 -208 117 -255 136 -117 46
-178 66 -249 79 -97 18 -236 25 -289 13z m3602 -2819 c137 -35 253 -120 337
-246 21 -32 39 -60 39 -63 1 -3 9 -23 19 -45 55 -127 63 -295 21 -445 -7 -26
-42 -98 -66 -139 -16 -29 -65 -86 -94 -112 -51 -46 -69 -59 -76 -59 -4 0 -14
-7 -22 -14 -33 -33 -134 -56 -245 -56 -119 -1 -139 4 -232 49 -124 59 -217
158 -278 291 -24 53 -47 130 -57 190 -2 14 -4 27 -5 30 -5 14 -2 101 5 140 4
25 8 51 8 58 0 6 3 12 7 12 3 0 7 9 8 20 4 43 6 50 14 50 4 0 8 7 8 16 0 19
25 65 64 119 30 41 125 134 138 135 4 0 13 6 20 13 17 17 107 55 155 65 64 14
154 11 232 -9z m-2168 -23 c86 -30 135 -62 211 -139 77 -78 147 -224 157 -327
8 -83 8 -132 0 -170 -5 -25 -12 -58 -15 -75 -8 -43 -62 -170 -85 -199 -10 -13
-19 -27 -19 -30 0 -13 -114 -126 -126 -126 -8 0 -14 -4 -14 -8 0 -11 -103 -66
-155 -82 -46 -16 -224 -20 -275 -8 -193 48 -363 239 -398 448 -7 41 -7 203 0
240 12 63 21 96 28 105 5 6 9 13 10 17 3 22 33 82 59 120 150 220 396 313 622
234z"/>
</g>
</svg>
